<svg width="20" height="20" viewBox="0 0 20 20" fill="none" xmlns="http://www.w3.org/2000/svg">
<g clip-path="url(#clip0_46_1785)">
<path d="M19.9893 12.5165C19.9394 11.3706 19.7402 10.1002 19.4412 8.90445C19.1423 7.75855 18.7686 6.68739 18.3202 5.86533C16.5765 2.8013 14.6832 3.2746 12.4164 3.87246C11.6939 4.04684 10.9217 4.24612 10.1246 4.32086H9.87545C9.0783 4.24612 8.30607 4.04684 7.58365 3.87246C5.31676 3.29951 3.42354 2.8013 1.67978 5.89024C1.23138 6.7123 0.832808 7.78346 0.558789 8.92936C0.259858 10.1251 0.0605716 11.3955 0.0107498 12.5414C-0.0390719 13.8119 0.0854824 14.7336 0.359502 15.3813C0.633521 15.9791 1.0321 16.3528 1.55522 16.5023C2.02853 16.6268 2.57657 16.577 3.14952 16.3279C4.12104 15.9293 5.24203 15.0823 6.33811 14.061C7.11034 13.3137 8.55517 12.94 10 12.94C11.4448 12.94 12.8897 13.3137 13.6619 14.061C14.758 15.0823 15.879 15.9293 16.8505 16.3279C17.4234 16.5521 17.9715 16.6268 18.4448 16.5023C18.943 16.3528 19.3665 16.004 19.6405 15.3564C19.9145 14.7336 20.0391 13.8119 19.9893 12.5165ZM18.7935 15.0076C18.6441 15.3564 18.4448 15.5556 18.1957 15.6304C17.9217 15.7051 17.5729 15.6553 17.1743 15.5058C16.3025 15.1571 15.2811 14.3848 14.2847 13.4382C13.3381 12.4916 11.669 12.0183 10 12.0183C8.33098 12.0183 6.66195 12.4916 5.69043 13.3884C4.66908 14.335 3.64774 15.1322 2.80077 15.456C2.40219 15.6055 2.05344 15.6802 1.77942 15.5806C1.53031 15.5058 1.33103 15.3065 1.18156 14.9578C0.982273 14.4845 0.88263 13.7122 0.932452 12.5663C0.982273 11.4952 1.15665 10.2745 1.45558 9.12865C1.7296 8.05748 2.07835 7.06105 2.50184 6.31372C3.87193 3.84755 5.46623 4.24612 7.35945 4.74434C8.13169 4.94363 8.92884 5.14292 9.80072 5.21765C9.82563 5.21765 9.82563 5.21765 9.85054 5.21765H10.1246C10.1495 5.21765 10.1495 5.21765 10.1744 5.21765C11.0712 5.14292 11.8683 4.94363 12.6406 4.74434C14.5338 4.27104 16.1281 3.84755 17.4982 6.31372C17.9217 7.06105 18.2704 8.03257 18.5444 9.12865C18.8184 10.2745 19.0177 11.4703 19.0676 12.5663C19.1174 13.7122 19.0177 14.4845 18.7935 15.0076Z" fill="white"/>
<path d="M7.7083 7.65892C7.45919 7.43472 7.16026 7.26035 6.81151 7.23544C6.78659 6.9116 6.63713 6.58775 6.41293 6.36356L6.38802 6.33865C6.114 6.06463 5.76525 5.91516 5.36668 5.91516C4.9681 5.91516 4.59444 6.08954 4.34533 6.33865C4.12113 6.56284 3.94676 6.88668 3.92185 7.23544C3.57309 7.26035 3.27416 7.40981 3.02506 7.63401L3.00014 7.65892C2.72613 7.93294 2.57666 8.28169 2.57666 8.68027C2.57666 9.07884 2.75104 9.4525 3.00014 9.70161C3.24925 9.95072 3.54818 10.1002 3.92185 10.1251C3.94676 10.4738 4.09622 10.7977 4.34533 11.0219C4.61935 11.2959 4.9681 11.4454 5.36668 11.4454C5.76525 11.4454 6.13891 11.271 6.38802 11.0219C6.61222 10.7728 6.78659 10.4738 6.81151 10.1251C7.16026 10.1002 7.4841 9.95072 7.7083 9.70161C7.98232 9.42759 8.13178 9.07884 8.13178 8.68027C8.13178 8.28169 7.95741 7.90803 7.7083 7.65892ZM7.08553 9.05393C6.98588 9.15357 6.86133 9.2034 6.71186 9.2034H6.36311C6.114 9.2034 5.8898 9.40268 5.8898 9.6767V10.0005C5.8898 10.15 5.83998 10.2746 5.74034 10.3742C5.6407 10.4738 5.51614 10.5237 5.36668 10.5237C5.21721 10.5237 5.09266 10.4738 4.99301 10.3742C4.89337 10.2746 4.84355 10.15 4.84355 10.0005V9.65179C4.84355 9.40268 4.64426 9.17848 4.37024 9.17848H4.02149C3.87202 9.17848 3.74747 9.12866 3.64783 9.02902C3.57309 8.95429 3.49836 8.82973 3.49836 8.68027C3.49836 8.5308 3.54818 8.40625 3.64783 8.3066C3.64783 8.3066 3.64783 8.3066 3.67274 8.28169C3.77238 8.20696 3.89694 8.15714 4.02149 8.15714H4.37024C4.61935 8.15714 4.84355 7.95785 4.84355 7.68383V7.33508C4.84355 7.18561 4.89337 7.06106 4.99301 6.96142C5.09266 6.86177 5.21721 6.81195 5.36668 6.81195C5.51614 6.81195 5.6407 6.86177 5.74034 6.96142C5.74034 6.96142 5.74034 6.96142 5.76525 6.98633C5.83998 7.08597 5.8898 7.21053 5.8898 7.33508V7.68383C5.8898 7.93294 6.08909 8.15714 6.36311 8.15714H6.71186C6.86133 8.15714 6.98588 8.20696 7.08553 8.3066C7.18517 8.40625 7.23499 8.5308 7.23499 8.68027C7.23499 8.82973 7.18517 8.95429 7.08553 9.05393Z" fill="white"/>
<path d="M14.3345 7.78346C14.8161 7.78346 15.2064 7.39311 15.2064 6.91158C15.2064 6.43006 14.8161 6.0397 14.3345 6.0397C13.853 6.0397 13.4626 6.43006 13.4626 6.91158C13.4626 7.39311 13.853 7.78346 14.3345 7.78346Z" fill="white"/>
<path d="M14.3345 11.3208C14.8161 11.3208 15.2064 10.9305 15.2064 10.4489C15.2064 9.96741 14.8161 9.57706 14.3345 9.57706C13.853 9.57706 13.4626 9.96741 13.4626 10.4489C13.4626 10.9305 13.853 11.3208 14.3345 11.3208Z" fill="white"/>
<path d="M12.5657 9.55214C13.0472 9.55214 13.4376 9.16178 13.4376 8.68026C13.4376 8.19873 13.0472 7.80838 12.5657 7.80838C12.0842 7.80838 11.6938 8.19873 11.6938 8.68026C11.6938 9.16178 12.0842 9.55214 12.5657 9.55214Z" fill="white"/>
<path d="M16.1031 9.55214C16.5846 9.55214 16.975 9.16178 16.975 8.68026C16.975 8.19873 16.5846 7.80838 16.1031 7.80838C15.6216 7.80838 15.2312 8.19873 15.2312 8.68026C15.2312 9.16178 15.6216 9.55214 16.1031 9.55214Z" fill="white"/>
</g>
<defs>
<clipPath id="clip0_46_1785">
<rect width="20" height="20" fill="white"/>
</clipPath>
</defs>
</svg>
