<svg width="20" height="20" viewBox="0 0 20 20" fill="none" xmlns="http://www.w3.org/2000/svg">
<g clip-path="url(#clip0_46_461)">
<path d="M17.3055 0V16.6641L4.36185 18.1421L2.69409 18.3323V1.66776C2.69409 0.746941 3.44062 0 4.36185 0L17.3055 0Z" fill="#DF9874"/>
<path d="M4.36185 0V18.1421L2.69409 18.3323V1.66776C2.69409 0.746941 3.44062 0 4.36185 0V0Z" fill="#D57E4B"/>
<path d="M16.1075 14.4272V2.23715C15.5617 2.23715 15.1192 1.79462 15.1192 1.24878H6.06161C6.06161 1.79466 5.61908 2.23715 5.07324 2.23715V14.4272C5.61912 14.4272 6.06161 14.8697 6.06161 15.4155H15.1192C15.1191 14.8697 15.5617 14.4272 16.1075 14.4272Z" fill="#FCE25C"/>
<path d="M9.70591 4.74283L8.3488 3.61193L6.9917 4.74283V4.19617e-05H9.70591V4.74283Z" fill="#FB636F"/>
<path d="M17.3058 16.6641V20H4.36209C3.44087 20 2.69434 19.2535 2.69434 18.3323C2.69434 17.8715 2.88087 17.4547 3.18291 17.1527C3.48454 16.8511 3.90128 16.6641 4.36209 16.6641H17.3058Z" fill="#F9EFDA"/>
<path d="M17.3057 17.4355V18.0478H5.69309C5.52411 18.0478 5.38696 17.9106 5.38696 17.7416C5.38696 17.5727 5.52411 17.4355 5.69309 17.4355H17.3057Z" fill="#F4E2C1"/>
<path d="M17.3058 18.6164V19.2286H4.47556C4.30658 19.2286 4.16943 19.0919 4.16943 18.9225C4.16943 18.7535 4.30658 18.6164 4.47556 18.6164H17.3058Z" fill="#F4E2C1"/>
<path d="M6.87671 10.7054L9.1697 8.41235L10.3237 9.56633L8.03068 11.8593L6.87671 10.7054Z" fill="#756E78"/>
<path d="M14.5104 5.9932L10.8923 9.6112L9.1272 7.84606L12.7452 4.22805L14.4425 4.29593L14.5104 5.9932Z" fill="#FFF9E2"/>
<path d="M9.9021 9.14222C9.82373 9.14222 9.74541 9.11234 9.68561 9.05255C9.56606 8.933 9.56606 8.73916 9.68561 8.61965L12.9698 5.33548C13.0894 5.21589 13.2832 5.21593 13.4028 5.33548C13.5223 5.45503 13.5223 5.64887 13.4028 5.76838L10.1185 9.05255C10.0588 9.1123 9.98043 9.14222 9.9021 9.14222Z" fill="#E6E6E6"/>
<path d="M11.3431 10.1108L11.1769 10.277C10.8994 10.5545 10.4495 10.5545 10.172 10.277L8.46131 8.5663C8.1838 8.28879 8.1838 7.83891 8.46131 7.5614L8.62751 7.3952C8.90502 7.11769 9.3549 7.11769 9.63241 7.3952L11.3431 9.10589C11.6206 9.3834 11.6206 9.83331 11.3431 10.1108Z" fill="#89C6FC"/>
<path d="M13.495 13.2916H7.68576C7.51666 13.2916 7.37964 13.1546 7.37964 12.9855C7.37964 12.8164 7.51666 12.6794 7.68576 12.6794H13.495C13.6641 12.6794 13.8012 12.8164 13.8012 12.9855C13.8012 13.1546 13.6641 13.2916 13.495 13.2916Z" fill="#544F57"/>
<path d="M12.3005 14.364H8.8801C8.711 14.364 8.57397 14.227 8.57397 14.0579C8.57397 13.8888 8.711 13.7518 8.8801 13.7518H12.3005C12.4696 13.7518 12.6066 13.8888 12.6066 14.0579C12.6066 14.227 12.4696 14.364 12.3005 14.364Z" fill="#544F57"/>
</g>
<defs>
<clipPath id="clip0_46_461">
<rect width="20" height="20" fill="white"/>
</clipPath>
</defs>
</svg>
