<svg width="20" height="20" viewBox="0 0 20 20" fill="none" xmlns="http://www.w3.org/2000/svg">
<path d="M11.0822 12.8472L9.99998 10.6828L8.91779 12.8472L6.5249 13.2076L8.24896 14.9057L7.85221 17.2929L9.99998 16.1779L12.1478 17.2929L11.751 14.9057L13.4751 13.2076L11.0822 12.8472ZM10.6075 15.1729L9.99998 14.8575L9.39248 15.1729L9.50467 14.4976L9.01705 14.0173L9.69385 13.9154L9.99998 13.3032L10.3061 13.9154L10.9829 14.0174L10.4953 14.4976L10.6075 15.1729Z" fill="white"/>
<path d="M10 9.06332C8.74715 9.06332 7.5952 9.50278 6.68949 10.2352H0V11.4071C0 11.9999 0.22168 12.5416 0.585938 12.9548V13.7508C0.585938 14.3436 0.807617 14.8854 1.17188 15.2986V16.0946C1.17188 17.3869 2.22328 18.4383 3.51562 18.4383H6.68949C7.5952 19.1707 8.74715 19.6102 10 19.6102C11.2529 19.6102 12.4048 19.1707 13.3105 18.4383H16.4844C17.7767 18.4383 18.8281 17.3869 18.8281 16.0946V15.2986C19.1924 14.8854 19.4141 14.3437 19.4141 13.7508V12.9548C19.7783 12.5416 20 11.9999 20 11.4071V10.2352H13.3105C12.4048 9.50274 11.2529 9.06332 10 9.06332ZM2.34375 16.0946H3.51562V14.9227H2.92969C2.28352 14.9227 1.75781 14.397 1.75781 13.7508H3.51562V12.5789H2.34375C1.69758 12.5789 1.17188 12.0529 1.17188 11.4067H5.61742C5.05504 12.2452 4.72656 13.2535 4.72656 14.3368C4.72656 15.42 5.05504 16.4279 5.61742 17.2664H3.51562C2.86945 17.2664 2.34375 16.7407 2.34375 16.0946ZM10 18.4383C7.7384 18.4383 5.89844 16.5984 5.89844 14.3368C5.89844 12.0752 7.7384 10.2352 10 10.2352C12.2616 10.2352 14.1016 12.0752 14.1016 14.3368C14.1016 16.5984 12.2616 18.4383 10 18.4383ZM17.6562 12.5789H16.4844V13.7504H18.2422C18.2422 14.3966 17.7165 14.9227 17.0703 14.9227H16.4844V16.0942H17.6562C17.6562 16.7404 17.1305 17.2664 16.4844 17.2664H14.3826C14.9449 16.4279 15.2734 15.42 15.2734 14.3368C15.2734 13.2535 14.945 12.2452 14.3826 11.4067H18.8281C18.8281 12.0529 18.3024 12.5789 17.6562 12.5789Z" fill="white"/>
<path d="M11.7579 7.89144V5.54769H13.4386L10.0001 0.389801L6.56152 5.54769H8.24227V7.89144H11.7579ZM10.0001 2.50242L11.249 4.37578H10.586V6.71953H9.41414V4.37578H8.75113L10.0001 2.50242Z" fill="white"/>
</svg>
