<svg width="20" height="20" viewBox="0 0 20 20" fill="none" xmlns="http://www.w3.org/2000/svg">
<path d="M4.07378 0C2.77671 0 1.72144 1.05527 1.72144 2.35234V17.6477C1.72144 18.9447 2.77671 20 4.07378 20H18.2788V0H4.07378ZM2.89331 17.6477V2.35234C2.89331 1.70145 3.42288 1.17188 4.07378 1.17188H17.1069V11.6288L15.9837 12.0427L13.975 11.3025L12.7848 13.0817L10.726 13.6646L10.8065 15.803L9.48507 17.4852L10.5399 18.8281H4.07378C3.42288 18.8281 2.89331 18.2986 2.89331 17.6477ZM12.0301 18.8281L10.9753 17.4852L11.9937 16.1887L11.9317 14.5412L13.519 14.0918L14.4358 12.7213L15.9837 13.2916L17.1069 12.8778V18.8281H12.0301Z" fill="white"/>
<path d="M14.2218 6.31839C14.9773 5.50382 14.9594 4.22667 14.1673 3.43457C13.3564 2.62367 12.037 2.62367 11.2261 3.43457C11.1143 3.5464 11.0185 3.66816 10.9374 3.79667C10.6141 3.70484 10.273 3.65566 9.92065 3.65566C9.56827 3.65566 9.22717 3.70484 8.90385 3.79667C8.82288 3.66816 8.72702 3.5464 8.61518 3.43457C8.22237 3.04175 7.70011 2.82542 7.1446 2.82542C6.58909 2.82542 6.06683 3.04175 5.67401 3.43457C4.88186 4.22667 4.86401 5.50382 5.61952 6.31839L4.56909 7.10621L5.27222 8.04371L6.19409 7.3523C6.19409 8.36293 6.60776 9.18394 7.39108 9.66914C8.00718 10.0507 8.85827 10.2443 9.92065 10.2443C13.1634 10.2443 13.6472 8.42105 13.6472 7.35234L14.5691 8.04375L15.2722 7.10625L14.2218 6.31839ZM9.92065 4.82753C11.0426 4.82753 11.9973 5.55472 12.3399 6.5623H7.50143C7.84405 5.55472 8.7987 4.82753 9.92065 4.82753ZM6.62307 5.64753C6.58065 5.61761 6.54011 5.58453 6.50265 5.5471C6.14866 5.19312 6.14866 4.61718 6.50265 4.2632C6.67413 4.09171 6.9021 3.9973 7.1446 3.9973C7.3871 3.9973 7.65319 4.10812 7.82307 4.30363C7.32182 4.64617 6.90819 5.10785 6.62307 5.64753ZM9.92065 9.07234C7.87448 9.07234 7.46698 8.28511 7.38581 7.73418H12.4555C12.3743 8.28511 11.9669 9.07234 9.92065 9.07234ZM13.3387 5.54707C13.301 5.58476 13.2603 5.61757 13.2181 5.64726C12.933 5.10769 12.5194 4.64609 12.0182 4.30359C12.1942 4.08527 12.4642 3.99769 12.6967 3.99769C12.9292 3.99769 13.1616 4.08617 13.3386 4.26316C13.6926 4.61714 13.6926 5.19308 13.3387 5.54707Z" fill="white"/>
<path d="M4.64087 10.4238H5.81274V11.6407H4.64087V10.4238Z" fill="white"/>
<path d="M4.64087 12.8125H5.81274V14.7076H4.64087V12.8125Z" fill="white"/>
<path d="M4.64087 15.8795H5.81274V17.0904H4.64087V15.8795Z" fill="white"/>
<path d="M7.02124 13.7571H8.19312V17.0904H7.02124V13.7571Z" fill="white"/>
</svg>
