<svg width="19" height="20" viewBox="0 0 19 20" fill="none" xmlns="http://www.w3.org/2000/svg">
<path d="M1.67709 17.323V17.823H2.17709H6.27001H6.77001V17.323V12.1771V11.6771H6.27001H3.16668C2.34428 11.6771 1.67709 12.3443 1.67709 13.1667V17.323ZM6.86376 18.0105H1.58334C1.56174 18.0105 1.53827 18.0017 1.5183 17.9817C1.49834 17.9618 1.48959 17.9383 1.48959 17.9167V13.1667C1.48959 12.2395 2.23949 11.4896 3.16668 11.4896H6.86376C6.88536 11.4896 6.90883 11.4984 6.9288 11.5183C6.94877 11.5383 6.95751 11.5618 6.95751 11.5834V17.9167C6.95751 17.9383 6.94877 17.9618 6.9288 17.9817C6.90883 18.0017 6.88536 18.0105 6.86376 18.0105Z" fill="white" stroke="white"/>
<path d="M6.95762 17.3229V17.8229H7.45762H11.5505H12.0505V17.3229V9.99996C12.0505 9.17757 11.3833 8.51038 10.561 8.51038H8.44721C7.62481 8.51038 6.95762 9.17757 6.95762 9.99996V17.3229ZM12.1364 18.0104H6.85596C6.83435 18.0104 6.81088 18.0016 6.79092 17.9817C6.77095 17.9617 6.76221 17.9382 6.76221 17.9166V9.99996C6.76221 9.07277 7.5121 8.32288 8.43929 8.32288H10.553C11.4802 8.32288 12.2301 9.07277 12.2301 9.99996V17.9166C12.2301 17.9694 12.1884 18.0104 12.1364 18.0104Z" fill="white" stroke="white"/>
<path d="M17.4167 18.5105H12.1363C11.8117 18.5105 11.5426 18.2413 11.5426 17.9167V13.9584C11.5426 13.6338 11.8117 13.3646 12.1363 13.3646H15.8334C17.0367 13.3646 18.0105 14.3384 18.0105 15.5417V17.9167C18.0105 18.2413 17.7413 18.5105 17.4167 18.5105ZM12.7301 17.323H16.823V15.5417C16.823 14.9955 16.3797 14.5521 15.8334 14.5521H12.7301V17.323Z" fill="white"/>
<path d="M10.8458 7.1104C10.6558 7.1104 10.4183 7.05496 10.1491 6.89663L9.49992 6.50872L8.85867 6.88873C8.20951 7.27665 7.78201 7.04706 7.62368 6.93623C7.46534 6.82539 7.12492 6.47706 7.29117 5.74873L7.44159 5.09163L6.90326 4.5533C6.57076 4.2208 6.45201 3.82497 6.57076 3.4608C6.68951 3.09663 7.01409 2.8433 7.47326 2.76413L8.16201 2.64538L8.54992 1.86957C8.97742 1.02248 10.0145 1.02248 10.4341 1.86957L10.822 2.64538L11.5108 2.76413C11.9699 2.8433 12.3024 3.09663 12.4133 3.4608C12.532 3.82497 12.4053 4.2208 12.0808 4.5533L11.5424 5.09163L11.6928 5.74873C11.8591 6.48498 11.5187 6.8254 11.3603 6.94415C11.2891 7.00749 11.107 7.1104 10.8458 7.1104ZM9.49992 5.3133C9.68992 5.3133 9.87993 5.36081 10.0383 5.45581L10.4816 5.71705L10.3866 5.28955C10.3074 4.95705 10.4262 4.5533 10.6716 4.30789L11.0753 3.90413L10.5766 3.81706C10.2599 3.76164 9.95117 3.53206 9.80867 3.24706L9.49992 2.65331L9.19909 3.24706C9.05659 3.53206 8.74784 3.76164 8.43118 3.81706L7.93243 3.89623L8.33617 4.29996C8.58159 4.54538 8.69242 4.94915 8.62117 5.28165L8.52618 5.70913L8.96951 5.44789C9.11993 5.35289 9.30992 5.3133 9.49992 5.3133Z" fill="white"/>
</svg>
