<svg width="20" height="20" viewBox="0 0 20 20" fill="none" xmlns="http://www.w3.org/2000/svg">
<path d="M10 20C10.9226 20 11.5338 19.8786 11.6641 19.8634L19.8634 11.6641C19.8759 11.5564 20 10.8961 20 10C20 4.49379 15.5059 0 10 0C4.49379 0 0 4.49414 0 10C0 15.5062 4.49414 20 10 20ZM11.7578 17.6562C11.7578 14.4038 14.4038 11.7578 17.6562 11.7578C17.8031 11.7578 17.9496 11.7639 18.0955 11.7747L11.7747 18.0955C11.7639 17.9496 11.7578 17.8031 11.7578 17.6562ZM10 1.17188C14.8679 1.17188 18.8281 5.13215 18.8281 10C18.8281 10.2264 18.8184 10.4532 18.8012 10.6789C18.424 10.6172 18.041 10.5859 17.6562 10.5859C14.5809 10.5859 12.0264 12.5631 11.039 15.1707C10.6986 15.2386 10.3503 15.2734 10 15.2734C7.90277 15.2734 6.00496 14.0314 5.16512 12.1092L4.09129 12.5784C5.11762 14.9275 7.43691 16.4453 10 16.4453C10.2334 16.4453 10.4661 16.432 10.6971 16.4071C10.6237 16.8157 10.5859 17.2332 10.5859 17.6562C10.5859 18.041 10.6172 18.424 10.6789 18.8012C10.4532 18.8184 10.2264 18.8281 10 18.8281C5.13215 18.8281 1.17188 14.8679 1.17188 10C1.17188 5.13215 5.13215 1.17188 10 1.17188Z" fill="white"/>
<path d="M6.48438 10.5859C7.47008 10.5859 8.24219 9.55645 8.24219 8.24219C8.24219 6.92793 7.47008 5.89844 6.48438 5.89844C5.49867 5.89844 4.72656 6.92793 4.72656 8.24219C4.72656 9.55645 5.49867 10.5859 6.48438 10.5859ZM6.48438 7.07031C6.72328 7.07031 7.07031 7.52684 7.07031 8.24219C7.07031 8.95754 6.72328 9.41406 6.48438 9.41406C6.24547 9.41406 5.89844 8.95754 5.89844 8.24219C5.89844 7.52684 6.24547 7.07031 6.48438 7.07031Z" fill="white"/>
<path d="M13.5156 10.5859C14.5013 10.5859 15.2734 9.55645 15.2734 8.24219C15.2734 6.92793 14.5013 5.89844 13.5156 5.89844C12.5299 5.89844 11.7578 6.92793 11.7578 8.24219C11.7578 9.55645 12.5299 10.5859 13.5156 10.5859ZM13.5156 7.07031C13.7545 7.07031 14.1016 7.52684 14.1016 8.24219C14.1016 8.95754 13.7545 9.41406 13.5156 9.41406C13.2767 9.41406 12.9297 8.95754 12.9297 8.24219C12.9297 7.52684 13.2767 7.07031 13.5156 7.07031Z" fill="white"/>
</svg>
