<svg width="20" height="20" viewBox="0 0 20 20" fill="none" xmlns="http://www.w3.org/2000/svg">
<path d="M0.804844 3.90344C0.360352 3.90344 0 4.26375 0 4.70824V15.5734C0 16.3513 0.630586 16.9819 1.40844 16.9819H7.68609C7.90836 16.9819 8.08852 17.162 8.08852 17.3843C8.08852 17.8288 8.44887 18.1891 8.89336 18.1891H11.1066C11.5511 18.1891 11.9115 17.8288 11.9115 17.3843C11.9115 17.162 12.0916 16.9819 12.3139 16.9819H18.5916C19.3694 16.9819 20 16.3513 20 15.5734V4.70824C20 4.26375 19.6396 3.9034 19.1952 3.9034H0.804844V3.90344Z" fill="#CCA581"/>
<path d="M12.3139 16.9819C12.2028 16.9819 12.1022 17.027 12.0294 17.0998C11.9566 17.1726 11.9115 17.2732 11.9115 17.3843C11.9115 17.8289 11.5513 18.1891 11.1066 18.1891H9.89941C10.3441 18.1891 10.7043 17.8289 10.7043 17.3843C10.7043 17.2732 10.7493 17.1726 10.8221 17.0998C10.895 17.027 10.9956 16.9819 11.1066 16.9819H12.3139Z" fill="#B58362"/>
<path d="M20 4.70824V15.5734C20 16.3513 19.3694 16.9819 18.5915 16.9819H17.1831C17.961 16.9819 18.5915 16.3513 18.5915 15.5734V4.70824C18.5915 4.26359 18.2314 3.9034 17.7867 3.9034H19.1951C19.6398 3.90344 20 4.26359 20 4.70824Z" fill="#B58362"/>
<path d="M9.97989 15.5734H1.60966C1.49853 15.5734 1.40845 15.4834 1.40845 15.3722V3.42051C1.40845 2.86488 1.85888 2.41445 2.4145 2.41445H8.97388C9.5295 2.41445 9.97993 2.86488 9.97993 3.42051V15.5734H9.97989Z" fill="#FFF1D4"/>
<path d="M9.97978 15.5734H18.3902C18.5014 15.5734 18.5915 15.4834 18.5915 15.3722V3.42051C18.5915 2.86488 18.141 2.41445 17.5854 2.41445H10.9858C10.4302 2.41445 9.97974 2.86488 9.97974 3.42051V15.5734H9.97978Z" fill="#FFCB00"/>
<path d="M18.5915 3.42051V15.3722C18.5915 15.4833 18.5013 15.5734 18.3902 15.5734H17.183C17.2941 15.5734 17.3842 15.4833 17.3842 15.3722V3.42051C17.3842 2.86477 16.9339 2.41445 16.3782 2.41445H17.5854C18.1411 2.41449 18.5915 2.86481 18.5915 3.42051Z" fill="#FFDA71"/>
<path d="M8.16904 9.57746H3.21932C2.99705 9.57746 2.81689 9.39731 2.81689 9.17504V6.47887C2.81689 6.2566 2.99705 6.07645 3.21932 6.07645H8.169C8.39127 6.07645 8.57143 6.2566 8.57143 6.47887V9.17504C8.57147 9.39731 8.39127 9.57746 8.16904 9.57746Z" fill="white"/>
<path d="M8.26958 11.0865H3.11869C2.95201 11.0865 2.81689 10.9514 2.81689 10.7847C2.81689 10.618 2.95201 10.4829 3.11869 10.4829H8.26958C8.43626 10.4829 8.57138 10.618 8.57138 10.7847C8.57138 10.9514 8.43626 11.0865 8.26958 11.0865Z" fill="#CFBDFF"/>
<path d="M6.37826 12.2937H3.11869C2.95201 12.2937 2.81689 12.1586 2.81689 11.992C2.81689 11.8253 2.95201 11.6902 3.11869 11.6902H6.37826C6.54494 11.6902 6.68006 11.8253 6.68006 11.992C6.68006 12.1586 6.54494 12.2937 6.37826 12.2937Z" fill="#CFBDFF"/>
<path d="M16.443 5.2416L15.6094 4.47203C15.5323 4.4009 15.4135 4.4009 15.3364 4.47203L14.5027 5.2416C14.3739 5.36059 14.165 5.26914 14.165 5.09375V2.21328C14.165 1.99102 14.3452 1.81086 14.5675 1.81086H16.3783C16.6006 1.81086 16.7807 1.99102 16.7807 2.21328V5.09375C16.7807 5.26918 16.5719 5.36059 16.443 5.2416Z" fill="white"/>
<path d="M14.5383 7.38246L15.0341 8.38695C15.0751 8.47008 15.1544 8.52773 15.2462 8.54105L16.3547 8.70215C16.5858 8.7357 16.6781 9.01965 16.5109 9.18262L15.7087 9.96453C15.6423 10.0293 15.612 10.1225 15.6277 10.2139L15.8171 11.3179C15.8565 11.548 15.615 11.7235 15.4084 11.6149L14.4168 11.0936C14.3348 11.0505 14.2367 11.0505 14.1547 11.0936L13.1632 11.6149C12.9566 11.7235 12.715 11.548 12.7545 11.3179L12.9439 10.2139C12.9595 10.1225 12.9293 10.0293 12.8629 9.96453L12.0607 9.18262C11.8935 9.01965 11.9858 8.7357 12.2168 8.70215L13.3254 8.54105C13.4171 8.52773 13.4964 8.47012 13.5375 8.38695L14.0332 7.38246C14.1365 7.17309 14.435 7.17309 14.5383 7.38246Z" fill="white"/>
</svg>
