<svg width="20" height="20" viewBox="0 0 20 20" fill="none" xmlns="http://www.w3.org/2000/svg">
<g clip-path="url(#clip0_46_1754)">
<path d="M17.9167 18.3333H2.08333C0.935 18.3333 0 17.3983 0 16.25V14.5833C0 14.3533 0.186667 14.1667 0.416667 14.1667H0.833333C1.7525 14.1667 2.5 13.4192 2.5 12.5C2.5 11.5808 1.7525 10.8333 0.833333 10.8333H0.416667C0.186667 10.8333 0 10.6467 0 10.4167V8.75C0 7.60166 0.935 6.66666 2.08333 6.66666H17.9167C19.065 6.66666 20 7.60166 20 8.75V10.4167C20 10.6467 19.8133 10.8333 19.5833 10.8333H19.1667C18.2475 10.8333 17.5 11.5808 17.5 12.5C17.5 12.945 17.6733 13.3633 17.9883 13.6783C18.3025 13.9933 18.7208 14.1667 19.1658 14.1667H19.5825C19.8125 14.1667 19.9992 14.3533 19.9992 14.5833V16.25C20 17.3983 19.065 18.3333 17.9167 18.3333ZM0.833333 15V16.25C0.833333 16.9392 1.39417 17.5 2.08333 17.5H17.9167C18.6058 17.5 19.1667 16.9392 19.1667 16.25V15H19.1658C18.4983 15 17.8708 14.74 17.3992 14.2683C16.9267 13.7958 16.6667 13.1675 16.6667 12.5C16.6667 11.1217 17.7883 10 19.1667 10V8.75C19.1667 8.06083 18.6058 7.5 17.9167 7.5H2.08333C1.39417 7.5 0.833333 8.06083 0.833333 8.75V10C2.21167 10 3.33333 11.1217 3.33333 12.5C3.33333 13.8783 2.21167 15 0.833333 15Z" fill="white"/>
<path d="M7.08342 8.33333C6.85342 8.33333 6.66675 8.14666 6.66675 7.91666V7.08333C6.66675 6.85333 6.85342 6.66666 7.08342 6.66666C7.31342 6.66666 7.50008 6.85333 7.50008 7.08333V7.91666C7.50008 8.14666 7.31342 8.33333 7.08342 8.33333Z" fill="white"/>
<path d="M7.08342 15.3842C6.85342 15.3842 6.66675 15.1975 6.66675 14.9675V13.5583C6.66675 13.3283 6.85342 13.1417 7.08342 13.1417C7.31342 13.1417 7.50008 13.3275 7.50008 13.5583V14.9683C7.50008 15.1983 7.31342 15.3842 7.08342 15.3842ZM7.08342 11.8592C6.85342 11.8592 6.66675 11.6725 6.66675 11.4425V10.0325C6.66675 9.8025 6.85342 9.61583 7.08342 9.61583C7.31342 9.61583 7.50008 9.8025 7.50008 10.0325V11.4425C7.50008 11.6725 7.31342 11.8592 7.08342 11.8592Z" fill="white"/>
<path d="M7.08342 18.3333C6.85342 18.3333 6.66675 18.1467 6.66675 17.9167V17.0833C6.66675 16.8533 6.85342 16.6667 7.08342 16.6667C7.31342 16.6667 7.50008 16.8533 7.50008 17.0833V17.9167C7.50008 18.1467 7.31342 18.3333 7.08342 18.3333Z" fill="white"/>
<path d="M2.0834 7.5C1.91424 7.5 1.75507 7.39666 1.6934 7.22916C1.61257 7.01333 1.72174 6.77333 1.93757 6.69333L15.1876 1.74583C15.8317 1.50417 16.5884 1.86583 16.8084 2.515L18.3109 6.94916C18.3842 7.1675 18.2676 7.40333 18.0501 7.47749C17.8342 7.55166 17.5959 7.43416 17.5217 7.21666L16.0192 2.7825C15.9459 2.56583 15.6942 2.4475 15.4784 2.52583L2.2284 7.47333C2.1809 7.49166 2.13174 7.5 2.0834 7.5Z" fill="white"/>
</g>
<defs>
<clipPath id="clip0_46_1754">
<rect width="20" height="20" fill="white"/>
</clipPath>
</defs>
</svg>
