<svg width="20" height="20" viewBox="0 0 20 20" fill="none" xmlns="http://www.w3.org/2000/svg">
<path d="M17.7739 20C18.0962 20 18.3597 19.7385 18.3597 19.4141V16.862H19.4139C19.7375 16.862 19.9999 16.5996 19.9999 16.276V4.97918C19.9999 4.65559 19.7375 4.39324 19.4139 4.39324H9.37231C9.04872 4.39324 8.78638 4.65559 8.78638 4.97918V16.276C8.78638 16.5996 9.04872 16.862 9.37231 16.862H14.3931L17.3595 19.8284C17.4716 19.9405 17.6214 20 17.7739 20Z" fill="#00B6FF"/>
<path d="M17.7741 20C18.0964 20 18.3599 19.7385 18.3599 19.4141V16.862H19.4141C19.7377 16.862 20.0001 16.5996 20.0001 16.276V4.97918C20.0001 4.65559 19.7377 4.39324 19.4141 4.39324H14.3933V16.862L17.3597 19.8284C17.4717 19.9405 17.6216 20 17.7741 20Z" fill="#4893FF"/>
<path d="M16.8445 12.9959L15.7414 8.58351C15.5865 7.96394 15.0323 7.53125 14.3929 7.53125C13.7541 7.53125 13.1998 7.96398 13.045 8.58355L11.9419 12.9959C11.8635 13.3098 12.0544 13.628 12.3683 13.7064C12.6823 13.7849 13.0004 13.594 13.0789 13.2801L13.2817 12.4687H15.5048L15.7076 13.2801C15.7861 13.594 16.1042 13.7849 16.4182 13.7064C16.7321 13.628 16.923 13.3098 16.8445 12.9959ZM13.5746 11.2969L14.1819 8.86773C14.2061 8.77082 14.2929 8.70308 14.3935 8.70308C14.4936 8.70308 14.5803 8.77078 14.6045 8.86773L15.2118 11.2969H13.5746Z" fill="#F5FAFF"/>
<path d="M2.22598 15.6068C1.90367 15.6068 1.64016 15.3452 1.64016 15.0208V12.4688H0.585938C0.262344 12.4688 0 12.2064 0 11.8828V0.585938C0 0.262344 0.262344 0 0.585938 0H10.6276C10.9512 0 11.2135 0.262344 11.2135 0.585938V11.8828C11.2135 12.2064 10.9512 12.4688 10.6276 12.4688H5.60676L2.64039 15.4352C2.52832 15.5473 2.37844 15.6068 2.22598 15.6068Z" fill="#FFCB00"/>
<path d="M10.6275 0H5.60669V12.4688H10.6275C10.9511 12.4688 11.2134 12.2064 11.2134 11.8828V0.585938C11.2134 0.262344 10.9511 0 10.6275 0Z" fill="#FF9D22"/>
<path d="M8.28359 8.81059C7.6157 8.61277 6.99648 8.2891 6.45679 7.86316C7.17851 7.03574 7.70265 6.03703 7.96765 4.93754H8.11719C8.44078 4.93754 8.70312 4.6752 8.70312 4.3516C8.70312 4.02801 8.44078 3.76566 8.11719 3.76566H6.19269V3.09637C6.19269 2.77277 5.93035 2.51043 5.60675 2.51043C5.28316 2.51043 5.02082 2.77277 5.02082 3.09637V3.76562H3.09636C2.77277 3.76562 2.51042 4.02797 2.51042 4.35156C2.51042 4.67516 2.77277 4.9375 3.09636 4.9375H6.75445C6.52453 5.71992 6.12316 6.43266 5.60679 7.03922C5.48519 6.89098 5.38289 6.7377 5.27695 6.57625L4.8414 5.91281C4.66378 5.6423 4.3005 5.56695 4.03003 5.74457C3.75949 5.92219 3.68417 6.28547 3.86179 6.55594L4.29722 7.21922C4.44245 7.44055 4.60058 7.65176 4.76988 7.85254C3.953 8.48699 3.20202 8.71969 2.91191 8.81621C2.60476 8.91805 2.43835 9.24965 2.54019 9.5568C2.62175 9.80277 2.85054 9.95844 3.09624 9.95844C3.27538 9.95844 4.4882 9.59172 5.60675 8.68301C6.72461 9.60945 7.93523 9.95844 8.11738 9.95844C8.37023 9.95844 8.60352 9.79348 8.67898 9.53875C8.7709 9.22852 8.59387 8.90246 8.28359 8.81059Z" fill="#F5FAFF"/>
<path d="M8.28353 8.81059C7.61564 8.61277 6.99642 8.2891 6.45673 7.86316C7.17845 7.03574 7.70259 6.03703 7.96759 4.93754H8.11713C8.44072 4.93754 8.70306 4.6752 8.70306 4.3516C8.70306 4.02801 8.44072 3.76566 8.11713 3.76566H6.19263V3.09637C6.19263 2.77277 5.93028 2.51043 5.60669 2.51043V4.93754H6.75435C6.52443 5.71996 6.12306 6.4327 5.60669 7.03926V8.68312C6.72454 9.60957 7.93517 9.95855 8.11732 9.95855C8.37017 9.95855 8.60345 9.79359 8.67892 9.53887C8.77084 9.22852 8.59381 8.90246 8.28353 8.81059Z" fill="#DFE9EE"/>
<path d="M15.7074 13.2801C15.7859 13.594 16.104 13.7849 16.418 13.7064C16.7319 13.628 16.9228 13.3098 16.8443 12.9959L15.7413 8.58351C15.5864 7.96402 15.0323 7.53137 14.3931 7.53125V8.70312C14.3932 8.70312 14.3933 8.70308 14.3934 8.70308C14.4934 8.70308 14.5802 8.77078 14.6044 8.86773L15.2117 11.2969H14.3931V12.4687H15.5046L15.7074 13.2801Z" fill="#DFE9EE"/>
</svg>
