<svg width="20" height="20" viewBox="0 0 20 20" fill="none" xmlns="http://www.w3.org/2000/svg">
<path d="M16.4453 8.82812V10C16.4453 13.3562 13.8664 16.1215 10.5859 16.4184V18.8281H13.5156C13.8391 18.8281 14.1016 19.0906 14.1016 19.4141C14.1016 19.7375 13.8391 20 13.5156 20H6.48438C6.16094 20 5.89844 19.7375 5.89844 19.4141C5.89844 19.0906 6.16094 18.8281 6.48438 18.8281H9.41406V16.4184C6.13359 16.1215 3.55469 13.3562 3.55469 10V8.82812C3.55469 8.50469 3.81719 8.24219 4.14062 8.24219H6.09375V9.41406H4.72656V10C4.72656 12.9078 7.09219 15.2734 10 15.2734C12.9078 15.2734 15.2734 12.9078 15.2734 10V9.41406H13.9062V8.24219H15.8594C16.1828 8.24219 16.4453 8.50469 16.4453 8.82812Z" fill="#0097F0"/>
<path d="M16.4453 8.82812V10C16.4453 13.3562 13.8664 16.1215 10.5859 16.4184V18.8281H13.5156C13.8391 18.8281 14.1016 19.0906 14.1016 19.4141C14.1016 19.7375 13.8391 20 13.5156 20H10V15.2734C12.9078 15.2734 15.2734 12.9078 15.2734 10V9.41406H13.9062V8.24219H15.8594C16.1828 8.24219 16.4453 8.50469 16.4453 8.82812Z" fill="#0052C2"/>
<path d="M10 0C7.7384 0 5.89844 1.83996 5.89844 4.10156V10C5.89844 12.2616 7.7384 14.1016 10 14.1016C12.2616 14.1016 14.1016 12.2616 14.1016 10V4.10156C14.1016 1.83996 12.2616 0 10 0Z" fill="#FFDA2D"/>
<path d="M14.1016 4.10156V10C14.1016 12.2617 12.2617 14.1016 10 14.1016V0C12.2617 0 14.1016 1.83984 14.1016 4.10156Z" fill="#FFDA2D"/>
<path d="M4.14062 1.79688C3.81703 1.79688 3.55469 2.05922 3.55469 2.38281V5.3125C3.55469 5.63609 3.81703 5.89844 4.14062 5.89844C4.46422 5.89844 4.72656 5.63609 4.72656 5.3125V2.38281C4.72656 2.05922 4.46422 1.79688 4.14062 1.79688Z" fill="#FDBF00"/>
<path d="M1.79688 0C1.47328 0 1.21094 0.262344 1.21094 0.585938V7.07031C1.21094 7.39391 1.47328 7.65625 1.79688 7.65625C2.12047 7.65625 2.38281 7.39391 2.38281 7.07031V0.585938C2.38281 0.262344 2.12047 0 1.79688 0Z" fill="#FDBF00"/>
<path d="M15.8594 1.79688C15.5358 1.79688 15.2734 2.05922 15.2734 2.38281V5.3125C15.2734 5.63609 15.5358 5.89844 15.8594 5.89844C16.183 5.89844 16.4453 5.63609 16.4453 5.3125V2.38281C16.4453 2.05922 16.183 1.79688 15.8594 1.79688Z" fill="#FE9022"/>
<path d="M18.2031 0C17.8795 0 17.6172 0.262344 17.6172 0.585938V7.07031C17.6172 7.39391 17.8795 7.65625 18.2031 7.65625C18.5267 7.65625 18.7891 7.39391 18.7891 7.07031V0.585938C18.7891 0.262344 18.5267 0 18.2031 0Z" fill="#FE9022"/>
</svg>
